<?xml version="1.0" encoding="UTF-8"?>
<svg version="1.1" viewBox="0 0 1388 1076" width="347" height="269" xmlns="http://www.w3.org/2000/svg">
<path transform="translate(0)" d="m0 0h1388v1076h-1388z" fill="#FDFDFD"/>
<path transform="translate(857,6)" d="m0 0h14l12 3 17 9 12 11 7 8 8 14 5 13 3 13 1 15-2 18-3 10-2 5 1 15-2 14-5 16-8 13-11 13-8 7-13 10-19 12-27 13-25 9-25 7-24 5-22 3-12 1h-32l-36-3-41-4-47-3h-22l-24 1-26 4-20 6-13 7-10 9-7 11-4 9-3 13v10l7 13 9 10 11 7 29 15 10 7 8 8 5 10 1 11-2 9-4 6-4 5-10 5h-11l-9-4-9-6-11-11-11-15-9-16-7-19-3-16-1-27-1-10v-22l4-28 5-20 5-13 9-17 11-14 13-13 17-12 19-10 22-8 25-6 18-3 19-2h61l51 5 49 5 12 1 25 1h35l34-3 22-5 16-6 9-6 5-5-3-9-6-10-8-10-11-11-17-12-16-10-10-9-7-8-4-9v-12l4-8 8-7z" fill="#020102"/>
<path transform="translate(714,288)" d="m0 0h14l14 3 20 9 10 3 9 5 8 7 7 10 8 16 4 12 1 5v19l-4 10-5 6-7 4-7 1-9-3-7-6-5-10-1-4v-39l-3-15-5-10-2-2-5 1-8 9-8 16-4 14-4 21-3 24-3 33-4 78-3 66-2 33-3 19-5 13-6 10-9 10-9 8-19 10-13 4-17 3h-25l-1-10-1-40v-17l1-36 3-38 4-35 6-39 9-43 8-30 8-24 10-23 10-19 10-13 12-12 14-9 11-4z" fill="#020102"/>
<path transform="translate(857,6)" d="m0 0h14l12 3 17 9 12 11 7 8 8 14 5 13 3 13 1 15-2 18-3 10-2 5 1 15-2 14-5 16-8 13-11 13-8 7-13 10-19 12-27 13-25 9-25 7-24 5-22 3-12 1h-32l-36-3-41-4-47-3h-22l-24 1-26 4-20 6-13 7-10 9-7 11-4 9-3 13v10l7 13 9 10 11 7 29 15 10 7 8 8 5 10 1 11-2 9-4 6-4 5-10 5h-11l-9-4-9-6-11-11-11-15-9-16-7-19-3-16-1-27-1-10v-22l4-28 5-20 5-13 9-17 11-14 13-13 17-12 19-10 22-8 25-6 18-3 19-2h61l51 5 49 5 12 1 25 1h35l34-3 22-5 16-6 9-6 5-5-3-9-6-10-8-10-11-11-17-12-16-10-10-9-7-8-4-9v-12l4-8 8-7zm64 126-9 7-14 7-16 5-22 4-20 2h-50l-31-2-95-10-13-1h-45l-30 3-26 5-20 6-16 6-12 6v2l-5 1-11 8-12 11-9 10-5 10-2 1-9 22-5 21-4 27v9l4-5v-2l3-1 4-7 6-7 7-4 4-4 14-7 16-5 25-4 42-1 47 2 75 7 15 1h28l29-3 10-2 21-3 10-3 21-7 12-5 20-9 14-8 12-8 4-3v-2l4-1 15-13 9-11 6-11 2-4 3-19v-11z" fill="#4F5C4E"/>
<path transform="translate(714,288)" d="m0 0h14l14 3 20 9 10 3 9 5 8 7 7 10 8 16 4 12 1 5v19l-4 10-5 6-7 4-7 1-9-3-7-6-5-10-1-4v-39l-3-15-5-10-2-2-5 1-8 9-8 16-4 14-4 21-3 24-3 33-4 78-3 66-2 33-3 19-5 13-6 10-9 10-9 8-19 10-13 4-17 3h-25l-1-10-1-40v-17l1-36 3-38 4-35 6-39 9-43 8-30 8-24 10-23 10-19 10-13 12-12 14-9 11-4zm3 8-14 3-13 6-12 11-8 9-14 28-10 25-7 21-7 28-8 40-6 39-4 33-3 39v95h20l18-4 10-4 9-3 1-3 8-4v-2l4-1 10-10 5-9 4-15 3-19 2-26 4-98 2-43 4-46 4-29 3-13v-4h2l6-15 6-11 9-10v-2l2-1-11-4-4-1z" fill="#384137"/>
<path transform="translate(187,790)" d="m0 0h13l13 3 8 5 3 3-1 9-4 14h-2l-2-13-6-9-4-3-3-1h-11l-8 6-3 6v12l5 10 9 10 13 13 11 9 12 10h1v-19l-4-11-7-2v-1l5-1h26l4 2-6 1-1 5v11l-4 18-2 5 1 4 17 13 10 7v1h-25l-13-3-7-3-14 5-6 1h-28l-16-4-11-6-5-4-6-9-2-7v-12l3-9 7-7 10-6 2-1-5-15v-15l5-10 9-7 11-4z" fill="#050505"/>
<path transform="translate(1167,791)" d="m0 0h3v2l-9 5-2 3-1 45h52v-23l-1-22-1-4-9-3-1-2h48l1 2-8 3-2 1-1 3v97l4 5 6 2v2h-47v-2l8-3 2-3 1-21v-24l-52-1 1 43 2 5 5 3 4 2v1h-48v-2l9-4 1-2 1-20v-75l-1-6-9-4v-1l14-1z" fill="#070707"/>
<path transform="translate(874,797)" d="m0 0h13l10 3 10 9 6 10 4 12 1 5v27l-4 15-6 11-7 7-8 4-10 2-11-1-12-6-7-8-5-10-3-11-1-6v-22l3-14 7-14 7-7 10-5z" fill="#FEFEFE"/>
<path transform="translate(875,790)" d="m0 0h12l14 2 12 4 12 7 9 9 6 10 4 13 1 7v14l-2 12-5 12-8 11-10 8-11 5-12 3-7 1h-18l-16-3-12-5-9-7-7-7-6-10-4-13-1-17 2-15 5-12 8-11 8-7 14-7 13-3zm-1 7-10 4-10 9-7 14-3 14v22l3 14 4 10 7 9 9 6 5 2 11 1 13-3 8-6 6-7 5-11 3-12v-27l-4-15-6-11-8-8-8-4-5-1z" fill="#050405"/>
<path transform="translate(358,790)" d="m0 0h11l16 2 17 5 4 2 1 2 1 26-3-3-6-12-8-8-8-4-8-2h-18l-9 4-8 6-7 10-4 11-2 12v17l3 16 5 12 7 8 12 6h17l11-4 7-8 1-5v-27l-9-2 2-2h39l1 2-7 2-1 31-6 7-14 8-17 5-7 1h-20l-14-3-10-4-11-8-9-12-5-12-2-8v-22l3-14 6-11 9-10 11-7 13-5z" fill="#060506"/>
<path transform="translate(857,6)" d="m0 0h14l12 3 17 9 12 11 7 8 8 14 5 13 3 13 1 15-1 13-1 2-3-1-2-31-4-12-2-9-5-9-7-10-4-4v-2l-4-1-2-6-2 1v-2l-5-2v-2l-6-1-8-4-4-1-10-2-6 1-2 2 14 1 11 4 12 7 10 9 5 5 7 10 5 10v3h2l3 11 1 14v12l-2 13-2 2-6-9-8-11-15-15-4-2v-2l-6-2-1-3-6-2-13-8-10-7v-2h-2v-2h-2v-2h-2l-6-10v-10l3-6 9-6 1-2-9 4v-2l-7 5v-3l8-7z" fill="#020202"/>
<path transform="translate(844,45)" d="m0 0 7 6 8 7 13 8 15 10 6 5 3 1 6 7 5 5 3 4 4 2 3 6 3 3 3 12-1 4-2 5-5 4h-3v2h-3v2l-12 5-4 1 5 2-3 2-13 4-22 4-20 2h-50l-31-2-95-10-13-1h-45l-30 3-26 5-20 6-16 6-10 5h-2v2l-8 4-9 7-10 9-9 10-5 5-6 9-6 17-2 2h-2v2h-3l-1 2 1-7 5-12 8-15 11-14 13-13 17-12 19-10 22-8 25-6 18-3 19-2h61l51 5 49 5 12 1 25 1h35l34-3 22-5 16-6 9-6 5-5-3-9-6-10-8-10-11-11-17-12-16-10-10-9-3-3z" fill="#3A4439"/>
<path transform="translate(752,297)" d="m0 0 5 1 15 5 9 5 8 7 7 10 8 16 4 12 1 5v19l-4 10-5 6-7 4-7 1-9-3-7-6-5-10-1-4v-39l-3-15-5-10-2-2-5 1-8 9-8 16-4 14-4 21-3 24-3 33-4 78-3 66-2 33-3 19-5 13-6 10-9 10-9 8-19 10-13 4-17 3h-23v-3l4-1 17-1 19-4 13-5 16-8 4-3h4l2-4h2v-2h4l2-5-1-4 6-18 4-24 2-26 4-98 2-43 4-46 4-29 4-17h2l1-5 5-12 6-10 8-9 3-3 6 2 5 3 4 5v3l3 1 2 5 1 10 2 3v7l-1 1 1 34 5 10 7 6 8 1h5l2-5 6-8 1-4v-20l-4-13-7-14-8-10-3-3v-2l-16-8h-4v-2l-4-1-6-4z" fill="#353D34"/>
<path transform="translate(595,790)" d="m0 0h12l15 2 15 5 3 2 1 3v24h-2l-8-16-9-8-7-3-5-1h-16l-11 4-6 4-8 9-5 11-2 8-1 10v9l2 15 4 11 6 10 7 6 8 4 4 1h19l10-3 8-6 4-5 5-11 3-15h2l2 13v14l-4 6-8 7-8 4-16 4h-20l-16-3-9-4-10-6-9-9-6-10-4-12-1-5v-20l4-15 7-12 7-7 12-8 11-4 10-2z" fill="#060606"/>
<path transform="translate(1324,790)" d="m0 0h13l23 2v23l-3-1-4-8-5-5-6-3h-15l-8 4-4 5-2 8 3 5v2l4 2 12 9 19 12 11 8 4 5 3 8v16l-4 10-5 6-9 6-9 3-6 1h-19l-14-3-8-4-3-3-1-3 1-13 4-10h2l2 12 6 9 5 4 8 3 9 1 11-2 7-4 3-6v-10l-4-7-13-9-17-11-13-10-6-9-2-7v-10l3-10 9-10 10-5z" fill="#060606"/>
<path transform="translate(1081,789)" d="m0 0h2l1 6v24l-2-1-3-12-1-3-4-2-1-1h-28v99l4 4 6 2v2h-48v-2l7-2 3-2 1-3 1-99-24 1-7 2-4 5-2 9-2-1v-25l14 1h84z" fill="#070707"/>
<path transform="translate(100,790)" d="m0 0h1l1 25-2 1-4-11-4-4-5-1h-25l1 99 4 4 6 3v1h-47l-1-2 10-4 1-4 1-98-26 1-5 2-4 4h-2v-15h87z" fill="#050505"/>
<path transform="translate(692,792)" d="m0 0h43v3l-7 3-2 5-1 96 27-1 10-3 4-3h2l2-4 6-9 1-5h2l-1 10-5 21-1 1-55 1h-28v-2l9-4 2-5v-98l-9-3-2-2z" fill="#050505"/>
<path transform="translate(915,179)" d="m0 0 1 3-9 10-12 12-18 13-15 9-25 12-25 9-25 7-24 5-22 3-12 1h-32l-36-3-41-4-47-3h-22l-24 1-26 4-20 6-13 7-10 9-7 11-4 9-3 13v10l7 13 9 10 11 7 29 15 10 7 8 8 5 10 1 11-2 9-4 6-4 5-10 5h-11l-9-4-9-6-11-11-11-15-9-16-7-19-2-8v-9l4 4 4 12 1 5v3h2l6 15 6 11 9 12 5 5 9 8 6 4 3 1v2h13l7-3 4-2 1-4 3-7-1-14-4-8-5-5-1-3-4-1-9-6-13-7-4-2-11-6-10-8v-2h-3l-7-8-3-4-3-10 1-4v-14l2-9 9-17 4-2 2-5 5-3 2-3 20-9 9-3 20-4 18-2 18-1h15l30 1 23 2 6 1 39 3 1 1 26 2 30 1 4 1 26-3 38-8 20-6h7 3l16-6 24-12 12-7 18-12 6-5 7-8 7-6 5-5z" fill="#384137"/>
<path transform="translate(443,344)" d="m0 0 4 1 8 7 13 8 26 14 11 7 8 9 3 6v11l-6 10-6 4-11 1-11-6-11-10-13-17-8-14-5-13-2-13z" fill="#030303"/>
<path transform="translate(862,8)" d="m0 0 10 1 9 1v2l7 3 8 2 1 3 5 2 2 6 3 1v2l3 1 7 10 6 9 2 5 2 11 2 3 2 16 1 20 2 1-2 11-3 7 1 15-2 14-5 16-6 10-4 2-5 5-2-2 7-10 2-3 2-8 2-9 2-12v-10l-9 7-11 6-10-1 2-2 11-4 5-1v-2h3v-2l5-3 3-2 2-5-2-9-2-7-3-4-3-5h-3l-5-7v-2l-4-2v-2l-4-2v-2l-4-1-12-9-16-10-11-8-8-8-1 3-4-4-4-9v-12l3-6 8-4h3l3-2h3l-1 3-6 4-3 1-2 6v10l5 8v2h2v2h2v2h2v2l4 2 15 10 10 5 1 2 6 3v2l5 2 17 17 9 14 2 3 2-6 1-8v-12l-1-14-2-11h-2l-8-16-7-10-8-7-10-7-10-5-7-2-15-1z" fill="#3D463B"/>
<path transform="translate(103,994)" d="m0 0 3 1 9 16 12 20 2 5h2l2-5 14-25 5-8 2-4h2l2 10 6 44 2 4 2 2h-19l-1-21-1-11-1-2-14 25-5 10-3-2-6-12-12-20-1 2-2 20v11h-13l5-5 7-51z" fill="#080908"/>
<path transform="translate(766,309)" d="m0 0 6 2 10 8 4 4 1 3 2 1v4h2l8 19 3 14-1 12-3 9-6 6-5 1-8-4-6-7-1-3v-38l-2-14z" fill="#030203"/>
<path transform="translate(495,994)" d="m0 0h3l6 11 18 30 4-5 11-19 10-17h2l7 52 2 6 2 2h-19v-13l-2-21-5 8-12 21-2 5-4-2-6-12-8-13-3-5v-2h-2l-1 16-1 18h-12l4-3 3-21z" fill="#080808"/>
<path transform="translate(220,993)" d="m0 0 33 1 8 3 6 7 1 3v7l-4 8-6 3 4 7 7 10 9 10 2 2h-9l-10-2-6-5-5-8-4-9v-2h-2v-2h-2v-2l9-3 2-5v-11l-3-5-10-2h-1v51l1 3 2 2-22 1 4-4v-56l-4-1z" fill="#080908"/>
<path transform="translate(793,993)" d="m0 0h23v2l-4 1-1 59-7-6-12-12-8-7-14-14-2-1 1 38 3 1h-22l3-2 2-2v-56l4 1 7 8 8 7 12 11 10 10 2 1v-37l-5-1z" fill="#090909"/>
<path transform="translate(915,169)" d="m0 0 1 3-7 10-3 6-10 10-2 3h-2l-1 3-5 4-7 4-5 4-9 5-8 5-7 3-8 4-15 7-11 4-8-1-25 7-33 7-26 3h-15v-1l-45-3-1-1-39-3-17-2-17-1-25-1h-15l-28 2-18 3-13 3-13 5-10 5h-3l-2 4-2 2-3-1 10-10 14-7 16-5 25-4 42-1 47 2 75 7 15 1h28l29-3 10-2 21-3 10-3 21-7 12-5 20-9 14-8 12-8 4-4 5-3 14-12 8-10z" fill="#4D594B"/>
<path transform="translate(611,542)" d="m0 0h1l1 8v11l-1 17-1 95 20-1 18-4 10-4 9-3 5-5 3-1 1-2 5-3 8-8 3-5 1 2-1 5v3l-2 3h-4v2l-4 4-7 3-4 3-17 8-17 5-11 2-17 1-6 3-1-10-1-40v-17l1-36 2-28 1-5z" fill="#3D463B"/>
<path transform="translate(662,993)" d="m0 0h17l13 4 1 14-3-3-4-6-8-4-8-1-8 2-5 4-4 8-2 8v10l3 11 4 6 4 3 3 1h10l7-4 1-2v-16l-3-3h21l-4 2v16l-4 5-11 5-8 2h-9l-12-3-6-4-7-8-3-8v-16l3-8 6-8 8-5z" fill="#090909"/>
<path transform="translate(166,851)" d="m0 0 4 2 9 9 11 9 10 9 14 11 3 3-1 3-7 3-5 1h-11l-10-3-10-6-6-7-4-10-1-13 3-10z" fill="#FEFEFE"/>
<path transform="translate(1248,993)" d="m0 0 3 3 11 25 12 26 5 8-6-1h-9l-8 1 2-3-2-10-3-5h-17l-2 1-4 13 1 3h-9l-5 1 6-7 7-15 17-39z" fill="#0A0A0A"/>
<path transform="translate(854,993)" d="m0 0h2l10 21 14 32 4 5v2h2l-1 2-5-1h-16l1-6-4-10-4-1h-15l-4 9v6l1 2h-10l-4 1 6-9 7-15 12-27 3-10z" fill="#090909"/>
<path transform="translate(597,993)" d="m0 0 3 1 16 35 9 20 4 5h-14l-9 1 1-2h2l-3-11-1-5h-20l-4 10-1 6h2l-1 2-6-1h-5l8-16 12-26 6-16z" fill="#0A0A09"/>
<path transform="translate(313,993)" d="m0 0 3 3 9 21 14 31 5 6h-22l2-1-4-13-3-3h-17l-5 14 1 3h-11l8-16 10-23 9-21z" fill="#090A09"/>
<path transform="translate(752,297)" d="m0 0 5 1 15 5 9 5 8 7 7 10 8 16 4 12 1 5v19l-4 10-5 6-7 4-7 1-9-3-7-6-5-10-1-4v-39l-3-15-5-10-2-2-5 1-8 9-8 16-3 7-3-1 1-9 8-17 7-10 4-4 6 2 5 3 4 5v3l3 1 2 5 1 10 2 3v7l-1 1 1 34 5 10 7 6 8 1h5l2-5 6-8 1-4v-20l-4-13-7-14-8-10-3-3v-2l-16-8h-4v-2l-4-1-6-4z" fill="#2F362E"/>
<path transform="translate(1105,993)" d="m0 0h42v11l-2 2-1-7-20-1v25l17-2 1-3h1v14l-2-1-1-3-16-2v24l14-1 7-3 3-4 2-4h1l-1 9-2 6-8 1h-34l3-2 1-52v-4l-5-2z" fill="#0D0E0C"/>
<path transform="translate(716,291)" d="m0 0h13l16 4 8 1 1 3 8 4v2l4-1 12 6 5 5 9 10 6 10 6 15 1 8v17l-3 7-6 8-1 2-10 1-6-3-7-8-3-7-1-39v-3h-1l-1-13-2-5-2-1-3-5-2-3-8-4-17-5h-15l-14 3-13 6-12 11-7 8v-3l8-10 10-9 4-4 4-1 1-3zm50 18 4 17 2 14v38l3 6 7 6 7 2 5-3 5-6 3-14-1-11-5-16-5-11h-2v-4l-2-1-1-3-5-5-9-7z" fill="#414B40"/>
<path transform="translate(1159,993)" d="m0 0h24v2l-2 1 1 5 11 28 3 4 14-33 1-5-4-1v-1h16l-6 7-13 28-10 23-1 3h-3l-20-44-7-14-4-2z" fill="#090909"/>
<path transform="translate(738,311)" d="m0 0v3l-8 15-2 6v5l2 4-4 1-4 16-1 11h-2v9l-1 1v13l-1 14-1 3-1 11-1 3-1 40-2 26-1 15-1 51-3 38-1 12-4 17-2 1v-8l3-19 2-26 4-98 2-43 4-46 4-29 4-17h2l1-5 5-12 6-10z" fill="#4C584A"/>
<path transform="translate(100,790)" d="m0 0h1l1 25-2 1-4-11-4-4-5-1h-25l-4 1-20-1v92h-1v-93l-26 1-5 2-4 4h-2v-15h87z" fill="#121512"/>
<path transform="translate(1047,993)" d="m0 0h24l-4 4-1 53 14-1 6-2 6-7 2-2-3 15-8 1h-35l3-2 1-4v-53l-5-1z" fill="#090908"/>
<path transform="translate(990,993)" d="m0 0 24 1-3 2-2 1-1 53 14-1 8-3 4-8h1l-1 11-2 4-8 1h-35l4-2 1-1v-55l-4-2z" fill="#080908"/>
<path transform="translate(915,179)" d="m0 0 1 3-9 10-12 12-18 13-15 9-25 12-25 9-25 7-24 5-22 3-12 1h-32l-9-1v-2h3v-2h29l4 1 26-3 38-8 20-6h7 3l16-6 24-12 12-7 18-12 6-5 7-8 7-6 5-5z" fill="#363F36"/>
<path transform="translate(435,341)" d="m0 0 4 4 4 12 1 5v3h2l6 15 6 11 9 12 5 5 9 8 6 4 3 1v2h13l7-3 4-2 1-4 3-7-1-14-4-8-5-5 1-3h3l8 9 3 7 1 11-2 9-4 6-4 5-10 5h-11l-9-4-9-6-11-11-11-15-9-16-7-19-2-8z" fill="#2C332C"/>
<path transform="translate(712,993)" d="m0 0h24l-1 2-3 1-1 51 1 5 3 2-22 1v-2l3-1 1-18v-39l-5-1z" fill="#0B0C0B"/>
<path transform="translate(615,138)" d="m0 0h29l19 1v2l-20 1v1l-37 2-30 3-26 5-20 6-16 6-10 5h-2v2l-8 4-9 7-10 9-9 10v-3l12-14 12-10 5-3 4-4 14-8 12-6h6v-2l12-2 9-2v-2l8-1 4-1 7-1v-1l9-1h6v-1z" fill="#4A5548"/>
<path transform="translate(599,137)" d="m0 0h61l12 1v2l-28-1h-29l-27 2v1h-10l-6 1-3 1-6 1v1l-7 1-4-1v2l-13 4h-8v2l-7 2-19 9-7 5h-2l-1 3-10 7-9 8-9 11-10 14-4 9-5 13h-3v2h-3l-1 2 1-7 5-12 8-15 11-14 13-13 17-12 19-10 22-8 25-6 18-3z" fill="#101210"/>
<path transform="translate(180,993)" d="m0 0h24v2l-4 2v54l3 3-21 1v-2h3v-58l-5-1z" fill="#090909"/>
<path transform="translate(447,993)" d="m0 0h24v2l-4 2v54l3 3h-14l-8 1v-2l4-2v-56l-5-1z" fill="#0A0B0A"/>
<path transform="translate(707,583)" d="m0 0 3 3v18l-3 19-5 13-6 10-9 10-9 8-19 10-13 4-17 3h-23v-3l4-1 17-1 19-4 13-5 16-8 4-3h4l2-4h2v-2h4l2-5-1-4 6-18 2 2 4-17 2-21z" fill="#343B34"/>
<path transform="translate(627,429)" d="m0 0 4 3-1 10-6 32-5 32-4 33-1 12-2-1-1-7-3 1-1 2-1-1 2-25 5-35 3-19 4-1 1 1v-10l3 3 3-16v-7-2l-1-4z" fill="#3C463B"/>
<path transform="translate(844,45)" d="m0 0 7 6 8 7 13 8 15 10 6 5 3 1 6 7 5 5 3 4 4 2 3 6 3 3 3 12-1 4-2 5-5 4h-3v2h-3v2l-12 5-4 1 5 2-3 2h-9l-4-1-9 1 3-4 15-4 13-5 9-6 5-5-3-9-6-10-8-10-11-11-17-12-16-10-10-9-3-3z" fill="#2E362E"/>
<path transform="translate(857,6)" d="m0 0h14l12 3 17 9 12 11 7 8 8 14 5 13 3 13 1 15-1 13-1 2-3-1-2-31-4-12-2-9-5-9-7-10-4-4v-2l-4-1-2-6-2 1v-2l-5-2v-2l-6-1-8-4-4-1-10-2-6 1-2 2 1 2h-3v-2l-9 4v-2l-7 5v-3l8-7z" fill="#0D0E0D"/>
<path transform="translate(603,607)" d="m0 0 2 1v43l1-2 1-6h2l1-2 1 32 20-1 18-4 10-4 9-3 5-5 3-1 1-2 5-3 8-8 3-5 1 2-1 5v3l-2 3h-4v2l-4 4-7 3-4 3-17 8-17 5-11 2-17 1-6 3-1-10-1-40v-17z" fill="#3E483C"/>
<path transform="translate(853,12)" d="m0 0h3l-1 3-6 4-3 1-2 6v10l5 8v2h2v2h2v2h2v2l4 2 15 10 10 5 1 2 6 3v2l5 2 17 17 7 10v3l-4-2-1-3-2-2-1-2h-3l-5-7v-2l-4-2v-2l-4-2v-2l-4-1-12-9-16-10-11-8-8-8-1 3-4-4-4-9v-12l3-6 8-4h3z" fill="#657063"/>
<path transform="translate(915,169)" d="m0 0 1 3-7 10-3 6-10 10-2 3h-2l-1 3-5 4-7 4-5 4-9 5-8 5-7 3-8 4-15 7-11 4-8-1-25 7-9 2-4-1 9-3 11-2 10-3 21-7 12-5 20-9 14-8 12-8 4-4 5-3 14-12 8-10z" fill="#394238"/>
<path transform="translate(471,263)" d="m0 0 2 1 1 1 2 1-12 8-9 10-8 16-3 13v10l7 13 9 10 11 7 29 15 10 7-1 3-2 1v-2l-4-1-9-6-13-7-4-2-11-6-10-8v-2h-3l-7-8-3-4-3-10 1-4v-14l2-9 9-17 4-2 2-5 5-3 2-3z" fill="#323A31"/>
<path transform="translate(462,354)" d="m0 0 9 3 6 3h3l2 3 16 8 6 5 3 1 7 8 4 8 1 14-3 7-2 4-5 4-6 2h-11l-2-1v-2l-5-1-11-9-5-4-9-12-7-11-5-11-2-5 1-3 5 11 9 16 14 17 10 8 8 4 11-1 6-4 5-9v-11l-4-7-7-8-14-8-26-14-3-3z" fill="#4C584A"/>
<path transform="translate(464,202)" d="m0 0v3l-4 8h-2l-1 5-7 17-5 21-1 5h-2l-2 13h-2v8l-2 6 1 5v13l-1 8h-2l-2-9v-22l4-28 4-17 4-3 2-2h2l4-11 4-9z" fill="#3B4439"/>
<path transform="translate(594,248)" d="m0 0 24 2 6 1 39 3 1 1 26 2 1 3h-3v2l-18-1-50-5-39-3v-3h13z" fill="#363F35"/>
<path transform="translate(747,301)" d="m0 0 6 2 5 3 4 5v3l3 1 2 5 1 10 2 3v7l-1 1v19l-1 11h-1l-1-23-1-2-3-21-4-11-4-5-5 1-8 9-8 16-3 7-3-1 1-9 8-17 7-10z" fill="#313931"/>
<path transform="translate(664,139)" d="m0 0h18l29 3-4 1v2l-2 1 2 3h-12l-44-4-32-1v-1l-7-1v-1l51-1z" fill="#414B3F"/>
<path transform="translate(641,371)" d="m0 0 1 3-1 9-2 7h-2l1 3-4 13-2 18-2 8-3-1 2 4-1 2-1 11-3 13-2-2v8l-2 2-1-3-2 2 1-11 8-38 8-29 6-18z" fill="#353D34"/>
<path transform="translate(435,341)" d="m0 0 4 4 4 12 1 5v3h2l6 15 6 11 9 12 8 10 1 4 2 3-4-2-10-10-11-15-9-16-7-19-2-8z" fill="#2F372F"/>
<path transform="translate(606,583)" d="m0 0h1l1 15 1 1 1-11h1v75h-1l-1-20-2 7-2 4-1-3v-50z" fill="#313931"/>
<path transform="translate(862,8)" d="m0 0 10 1 9 1v2l7 3 8 2 1 3 5 2 2 6 3 1v2l3 1 7 10 6 9 2 5 2 11 1 2v8h-1l-3-13v-3h-2l-8-16-7-10-8-7-10-7-10-5-7-2-15-1z" fill="#717B70"/>
<path transform="translate(714,288)" d="m0 0h14l14 3 9 4v1l-10-1-12-3h-13l-18 4-3 3-4 2-4 5-8 7-8 10-3 1h-2l-5 8-2-1 7-11 11-12 10-9 12-7 9-3z" fill="#212520"/>
<path transform="translate(769,249)" d="m0 0h5l-1 2h-3v2l-26 5-20 2h-15v-1l-45-3-1-3h10l27 2h27l3-1 29-3z" fill="#606C5E"/>
<path transform="translate(915,179)" d="m0 0 1 3-9 10-12 12-18 13-15 9-25 12-25 9h-6l4-2 24-9 24-12 12-7 18-12 6-5 7-8 7-6 5-5z" fill="#111311"/>
<path transform="translate(773,310)" d="m0 0 5 3h4l9 11 7 11 6 15 1 8v17l-3 7-4 3 3-16-1-11-5-16-4-8v-3h-2v-4l-3-1v-3l-4-2-9-9z" fill="#5A6659"/>
<path transform="translate(708,514)" d="m0 0h1v44l-3 38-1 12-4 17-2 1v-8l3-19 2-26 2-53z" fill="#4F5B4D"/>
<path transform="translate(679,656)" d="m0 0 2 1-5 5h-3v2h-3v2l-4 3-4 1-1 3-15 5-17 3h-23v-3l4-1 17-1 19-4 13-5 16-8z" fill="#353E35"/>
<path transform="translate(595,246)" d="m0 0h17l75 7 40 2v1h-27l-27-2h-20l-29-2-17-2-12-1z" fill="#444F43"/>
<path transform="translate(924,125)" d="m0 0 2 1-1 4h2l1-2 2 7-1 14-4 16-7 14-5 3-5 5-2-2 7-10 6-11 3-7 1-8h2z" fill="#2C332C"/>
<path transform="translate(853,12)" d="m0 0h3l-1 3-6 4-3 1-2 6v10l5 8v2h2l-1 4-5-4-1 3-4-4-4-9v-12l3-6 8-4h3z" fill="#2C332C"/>
<path transform="translate(393,795)" d="m0 0 9 2 4 2 1 2 1 26-3-3-6-12-8-8-1-3h2v-2l-3-1z" fill="#0F110F"/>
<path transform="translate(752,297)" d="m0 0 5 1 15 5 9 5 8 7 7 10 8 16 2 7h-3l-10-20-8-10-3-3v-2l-16-8h-4v-2l-4-1-6-4z" fill="#2D342D"/>
<path transform="translate(693,637)" d="m0 0 1 2-1 5v3l-2 3h-4v2l-4 4-7 3-4 3-17 8-17 5-7 1h-13v-1l27-6 12-4 11-4 5-5 3-1 1-2 5-3 8-8z" fill="#7E877D"/>
<path transform="translate(525,154)" d="m0 0h5l4 2v2l-20 7-10 5h-2v2l-8 4-9 7-10 9-9 10v-3l12-14 12-10 5-3 4-4 14-8z" fill="#465044"/>
<path transform="translate(927,53)" d="m0 0 2 3 5 15 2 21-1 13-1 2-3-1-2-31-4-12v-9z" fill="#2A312A"/>
<path transform="translate(550,247)" d="m0 0h15l25 1 4 2-11 1-2 2-48-1 2-4z" fill="#333C33"/>
<path transform="translate(803,348)" d="m0 0 4 1 2 9v19l-4 10-5 6-4 3h-5v-3l4-1 2-5 6-8 1-4v-20z" fill="#303830"/>
<path transform="translate(465,195)" d="m0 0v3l-2 6-8 12-6 17-2 2h-2v2h-3l-1 2 1-7 5-12 8-15 4-5z" fill="#353E34"/>
<path transform="translate(808,242)" d="m0 0h7l-2 1v2l-4 2-3 2-32 8h-8l4-5 21-5z" fill="#30372F"/>
<path transform="translate(738,311)" d="m0 0v3l-8 15-2 6v5l2 4-4 1-4 16-1 11h-2v2l-3 1 1-12 4-19 1-4h2l1-5 5-12 6-10z" fill="#505C4F"/>
<path transform="translate(599,137)" d="m0 0h61l12 1v2l-28-1h-29l-27 2v1h-10l-6 1-3 1-5 1-7-1v-1l15-3z" fill="#111210"/>
<path transform="translate(880,205)" d="m0 0 2 1-10 8-21 12-13 6-23 9-27 8-14 3-4-1 9-3 11-2 10-3 21-7 12-5 20-9 14-8 12-8z" fill="#FEFEFE"/>
<path transform="translate(641,371)" d="m0 0 1 3-1 9-2 7h-2l1 3-4 13-2 17-2-1-4 2 1-9 9-32z" fill="#262C26"/>
<path transform="translate(768,336)" d="m0 0 4 1 1 3v38l3 6 6 5 7 2 5-3 4-3-2 5-1 2-10 1-6-3-7-8-3-7z" fill="#4C584A"/>
<path transform="translate(594,1013)" d="m0 0 3 3 5 13v4h-15l1-5 5-14z" fill="#FEFEFE"/>
<path transform="translate(851,1013)" d="m0 0 2 1 6 16v3h-15l2-9z" fill="#FEFEFE"/>
<path transform="translate(309,1013)" d="m0 0 3 3 5 14v3h-15l1-6z" fill="#FEFEFE"/>
<path transform="translate(1244,1013)" d="m0 0h2l6 17v3h-15l1-6z" fill="#FEFEFE"/>
<path transform="translate(653,356)" d="m0 0 1 4-10 26-8 28-4 18h-2l1-8 4-17 7-24 2-6-2-2 2-3h3l1-6h-1v-6l5-1z" fill="#485447"/>
<path transform="translate(450,383)" d="m0 0h2l8 10 7 10 8 10 1 4 2 3-4-2-10-10-11-15-3-5z" fill="#141613"/>
<path transform="translate(627,429)" d="m0 0 4 3-1 10-6 32-2 7-3-4-2 2v-9l-1-4 4-1 1 1v-10l3 3 3-16v-7-2l-1-4z" fill="#3E483D"/>
<path transform="translate(915,169)" d="m0 0 1 3-7 10-3 6-10 10-2 3h-2l-1 3-5 4-8 3-2-1 5-4 2-4 5-3 14-12 8-10z" fill="#A2A7A1"/>
<path transform="translate(915,179)" d="m0 0 1 3-9 10-12 12-18 13-3 1 2-4 7-6 5-3 6-5 7-8 7-6 5-5z" fill="#0C0D0C"/>
<path transform="translate(726,342)" d="m0 0 3 1-1 10-4 23-2 13-3-3 2-25z" fill="#333C33"/>
<path transform="translate(645,359)" d="m0 0 2 1 1 5 1 2-2 5-3 1v2l1 4-4 11-7 25-1 5h-1v-8l3-14 2-6v-2h2l1-7 1-14z" fill="#3B4439"/>
<path transform="translate(1093,1038)" d="m0 0 1 3-3 12-8 1h-35l4-2h14v-2l14-1 6-2 6-7z" fill="#1E221D"/>
<path transform="translate(446,365)" d="m0 0 3 4 4 9 8 14 14 17 10 8 8 4 9 1 3 1-2 1h-11l-2-1v-2l-5-1-11-9-5-4-9-12-7-11-5-11-2-5z" fill="#FEFEFE"/>
<path transform="translate(710,292)" d="m0 0h9v1l-13 3v3l-15 6-13 12-7 8v-3l8-10 10-9 4-4 4-1 1-3z" fill="#6C766A"/>
<path transform="translate(716,418)" d="m0 0 2 4v22l-1 9-4 1v-28z" fill="#373F36"/>
<path transform="translate(702,631)" d="m0 0 1 3-5 9-7 9-9 9-13 8-6 3-4-1 5-3 6-2v-2h3v-2l5-2 3-4h2l2-4h2v-2h4l2-5v-3l4-2z" fill="#090A09"/>
<path transform="translate(471,263)" d="m0 0 2 1 1 1 2 1-12 8-9 10-4 6-3-1 2-7 4-5h2l2-5 5-3 2-3z" fill="#2A312A"/>
<path transform="translate(765,253)" d="m0 0 4 1-2 2 1 2-27 4h-10l3-4 21-3z" fill="#343D34"/>
<path transform="translate(634,139)" d="m0 0 29 1v1l-20 1v1l-24 1h-20l-4-1-3-1 10-2z" fill="#525F50"/>
<path transform="translate(615,138)" d="m0 0h29l19 1v1h-29l-32 1-7 1h5v1l6 1v1h-21l1-5z" fill="#343D34"/>
<path transform="translate(471,408)" d="m0 0 16 12 3 1v2l12 1-3 3v2l-9-1-10-5-6-7-1-4z" fill="#333B33"/>
<path transform="translate(871,145)" d="m0 0 4 1-2 1zm11 1h5l2 1h3v2l-14 4-5 1h-15l3-4 8-2z" fill="#414B3F"/>
<path transform="translate(716,291)" d="m0 0h13l10 3-1 3h-21l-11 1-1-3 11-3z" fill="#546052"/>
<path transform="translate(923,1026)" d="m0 0h25l1 3-1 2-18 1-8-1z" fill="#131513"/>
<path transform="translate(381,1026)" d="m0 0h26l-1 5-17 1-9-1z" fill="#121412"/>
<path transform="translate(462,354)" d="m0 0 9 3 6 3h3l2 3 9 5-1 4-6-2-23-13z" fill="#485346"/>
<path transform="translate(906,33)" d="m0 0 5 1 6 8 6 9 2 5 2 11 1 2v8h-1l-3-13v-3h-2l-8-16-8-11z" fill="#5F6A5E"/>
<path transform="translate(664,139)" d="m0 0 5 1 1 4h-51v-1l-7-1v-1l51-1z" fill="#353D34"/>
<path transform="translate(668,325)" d="m0 0h2l-1 5-9 16-4 9h-4-3l6-12 4-2v-4l5-5z" fill="#485346"/>
<path transform="translate(714,288)" d="m0 0h14l14 3 9 4v1l-10-1-12-3h-19l-2-3z" fill="#2D342D"/>
<path transform="translate(657,257)" d="m0 0h33l1 3h-3v2l-18-1-13-2z" fill="#353D34"/>
<path transform="translate(887,15)" d="m0 0 9 2 1 3 5 2 2 6 3 1v2l3 1-2 2-4-1-10-9-9-5z" fill="#4F5A4D"/>
<path transform="translate(578,141)" d="m0 0 7 1 1 2h11l-3 2-18 1-15 1-4-2 3-2h7l4-2z" fill="#465144"/>
<path transform="translate(924,125)" d="m0 0 2 1-1 4h2l1-2 2 7-1 14-1 5h-3l-2 2v-7h2z" fill="#333B33"/>
<path transform="translate(844,45)" d="m0 0 7 6 8 7 9 6 2 5-5-2-11-7-10-10z" fill="#0F100E"/>
<path transform="translate(1034,1038)" d="m0 0h1l-1 11-2 4-8 1h-17v-1l8-1-7-1v-1l14-1 8-3z" fill="#1F231E"/>
<path transform="translate(920,129)" d="m0 0 1 4-9 7-11 6-10-1 2-2 11-4 5-1v-2h3v-2l5-3z" fill="#465144"/>
<path transform="translate(484,361)" d="m0 0 6 2 15 8 5 4-1 3-2 1v-2l-4-1-9-6-9-5-2-3z" fill="#313931"/>
<path transform="translate(909,134)" d="m0 0h3v2h-3v2l-12 5-4 1 5 2-3 2h-9l-4-1-9 1 3-4 8-1 6-1 9-2 9-5z" fill="#384137"/>
<path transform="translate(516,393)" d="m0 0h2l1 14-3 7-2 4-5 4-12 1 2-2 7-2 5-5 4-7z" fill="#636E61"/>
<path transform="translate(857,6)" d="m0 0h14v1h-11l-1 4v3h-3v-2l-9 4v-2l-7 5v-3l8-7z" fill="#282E28"/>
<path transform="translate(447,288)" d="m0 0 4 3-4 9-3 13v11l-4-1 1-4v-14l2-9z" fill="#3B4439"/>
<path transform="translate(928,70)" d="m0 0h1l2 16v17h-2l-1 8h-1v-34z" fill="#5A6558"/>
<path transform="translate(773,310)" d="m0 0 5 3h4l9 11 4 6-1 2-5-1v-4l-3-1v-3l-4-2-9-9z" fill="#6D786C"/>
<path transform="translate(640,253)" d="m0 0h13l10 1 1 1 12 1v1h-19v2l-9-1v-2h-9z" fill="#394238"/>
<path transform="translate(464,202)" d="m0 0v3l-4 8h-2l-1 5-7 17-4 16h-2l1-9 6-17 4-10 7-11z" fill="#4A5648"/>
<path transform="translate(853,12)" d="m0 0h3l-1 3-6 4-3 1-2 6v10l5 8-1 2-5-5-3-7v-10l4-5h2l2-4z" fill="#606B5E"/>
<path transform="translate(678,309)" d="m0 0 2 3-9 11-3 1h-2l-5 8-2-1 7-11 6-7z" fill="#242924"/>
<path transform="translate(402,801)" d="m0 0h2 1 2l1 26-2-1-1-9-4-10-2-1v-2l-3-1 3-1z" fill="#333B32"/>
<path transform="translate(672,139)" d="m0 0h10l20 2 3 2-2 1h-21l-12-3z" fill="#2C342C"/>
<path transform="translate(1142,1018)" d="m0 0h1v14l-2-1-1-3-16-3v-2l17-2z" fill="#1F241F"/>
<path transform="translate(215,801)" d="m0 0 4 2 1 8h2l-2 9-1 4h-2l-2-13-2-5 4-1z" fill="#1B1F1B"/>
<path transform="translate(693,637)" d="m0 0 1 2-1 5v3l-2 3h-4v2l-4 4-7 2 2-3-1-2 5-3 8-8z" fill="#7E857E"/>
<path transform="translate(491,255)" d="m0 0h2v5l-17 6h-5l2-4 12-5z" fill="#313930"/>
<path transform="translate(594,248)" d="m0 0 7 2v1l6 1v2h9v1h-10l-25-2v-3h13z" fill="#3E483C"/>
<path transform="translate(630,421)" d="m0 0 2 3-2 8-3-1 2 4-1 2-1 4-1-4h-2l-1 2v-7l2-9z" fill="#323A31"/>
<path transform="translate(693,258)" d="m0 0h27l4 1h9l-2 2h-35z" fill="#3C453A"/>
<path transform="translate(496,171)" d="m0 0 4 1-14 10-12 11-8 9v-3l12-14 12-10z" fill="#FEFEFE"/>
<path transform="translate(764,149)" d="m0 0h33l10 1-2 2h-22l-15-1z" fill="#353E35"/>
<path transform="translate(631,403)" d="m0 0 2 3-1 17-2-1-4 2 1-9 3-11z" fill="#2A312A"/>
<path transform="translate(445,233)" d="m0 0 3 3-4 14-3-2-1 4h-2l1-10 2-4 3-3z" fill="#374036"/>
<path transform="translate(851,48)" d="m0 0h2v2h2v2l4 2 15 10-2 1h-3l-11-7-8-7z" fill="#949B92"/>
<path transform="translate(764,309)" d="m0 0 2 3v2h2l4 16v7h-2l-2-4h-1l-1-13-3-7z" fill="#4C584A"/>
<path transform="translate(441,324)" d="m0 0 4 1 6 11 4 5-1 2-6-3-5-7z" fill="#2E352D"/>
<path transform="translate(671,143)" d="m0 0 8 1 22 1 1 2-7 1h-13l-8-1-3-2z" fill="#3B443A"/>
<path transform="translate(441,245)" d="m0 0 4 6-1 10-6 1v-8l-1-4 1 2h2z" fill="#3F483D"/>
<path transform="translate(923,137)" d="m0 0h1v12l-1 8-3 7-4 5 1-5 2-9 3-17z" fill="#7F877E"/>
<path transform="translate(545,149)" d="m0 0 6 1-4 3-4 2-7 2-9-1 4-4 12-2z" fill="#495447"/>
<path transform="translate(645,359)" d="m0 0 2 1 1 5 1 2-2 5-3 1v2l1 4-2 2v-3h-2v-9z" fill="#384136"/>
<path transform="translate(927,53)" d="m0 0 2 3 2 5v5 2 6l-4-5-2-6v-9z" fill="#242923"/>
<path transform="translate(830,234)" d="m0 0h5l-1 3-18 7-3-1-2-2 17-6z" fill="#374036"/>
<path transform="translate(434,292)" d="m0 0 3 1v13l-1 8h-2l-1-2v-17z" fill="#384036"/>
<path transform="translate(802,358)" d="m0 0 2 2 1 15-3 7-4 3 3-16z" fill="#A7ACA6"/>
<path transform="translate(914,33)" d="m0 0h2l9 14 2 4-1 4-2 1-4-8-1-4-2-5-3-4z" fill="#101210"/>
<path transform="translate(765,346)" d="m0 0 2 2v23l-1 5-2-1v-16z" fill="#292F29"/>
<path transform="translate(459,200)" d="m0 0 1 2-10 17-8 20-1-4 5-13 9-17z" fill="#131513"/>
<path transform="translate(768,330)" d="m0 0 2 3v7l-1 1v19l-1 11h-1v-38z" fill="#3C453A"/>
<path transform="translate(465,195)" d="m0 0v3l-2 6-7 11-4-1 8-14z" fill="#292F29"/>
<path transform="translate(738,311)" d="m0 0v3l-8 15-5 15-2 1 1-8 7-16 6-9z" fill="#FEFEFE"/>
<path transform="translate(461,267)" d="m0 0 2 1-3 3h-2l-1 4-6 7-5 5v-3l4-7 7-8z" fill="#848C83"/>
<path transform="translate(866,146)" d="m0 0h7l-1 2-5 2-8 1h-9l-1-2 9-2z" fill="#323A32"/>
<path transform="translate(903,23)" d="m0 0 4 3v2l4 2 8 10 1 4h-3l-6-9-4-4v-2l-4-1z" fill="#262C26"/>
<path transform="translate(627,429)" d="m0 0 4 3-1 10-4 20-2 1 1-10 2-10v-7-2l-1-4z" fill="#475346"/>
<path transform="translate(655,339)" d="m0 0 2 1-7 15 4-2 1 4h-2l-4 4-3-1 1-5z" fill="#333B32"/>
<path transform="translate(770,373)" d="m0 0 2 3 4 8 6 5 7 2 5-3 4-3-2 5-1 2-10 1-6-3-7-8-2-5z" fill="#EDEEED"/>
<path transform="translate(509,162)" d="m0 0 4 1v3l-9 4h-2v2h-5l-1-2z" fill="#6B7469"/>
<path transform="translate(438,341)" d="m0 0h2l3 7 2 5 1 12h-2l-1-7-4-9v-4l-2-1z" fill="#8E968C"/>
<path transform="translate(837,234)" d="m0 0m-2 1 4 2-21 8-6 2h-6l4-2 24-9z" fill="#181B17"/>
<path transform="translate(919,50)" d="m0 0 4 1 2 5 2 11 1 2v8h-1l-3-13v-3h-2l-3-7z" fill="#A8ADA7"/>
<path transform="translate(690,302)" d="m0 0 3 2-10 8-7 7-5 6v-3l8-10z" fill="#FEFEFE"/>
<path transform="translate(462,354)" d="m0 0 9 3 6 3v3l-4 1-12-7z" fill="#495447"/>
<path transform="translate(808,242)" d="m0 0h7l-2 1v2l-4 2-3 2-9 1 3-1 2-5z" fill="#2B312A"/>
<path transform="translate(908,133)" d="m0 0 4 1-11 6-5 2-8 2-4-1 10-4 12-5z" fill="#131513"/>
<path transform="translate(504,252)" d="m0 0 3 1h-2l-1 4-7 2-7-1 3-1 1-3z" fill="#353D34"/>
<path transform="translate(882,146)" d="m0 0h5l2 1h3v2l-6 2h-9l-3-3z" fill="#4C584A"/>
<path transform="translate(919,122)" d="m0 0 1 2 2 1-2 5-5 4-6-1 9-9z" fill="#333C33"/>
<path transform="translate(607,141)" d="m0 0 36 1v1l-24 1h-13z" fill="#434D41"/>
<path transform="translate(846,1033)" d="m0 0h13l-2 4h-12v-3z" fill="#171A17"/>
<path transform="translate(705,142)" d="m0 0h6l-4 1v2l-2 1 2 3h-12v-2l6-1-5-1 3-2h5z" fill="#465144"/>
<path transform="translate(719,360)" d="m0 0 2 1v11h-2v2l-3 1 1-12z" fill="#545F52"/>
<path transform="translate(668,325)" d="m0 0h2l-1 5-7 12-4-2 1-3 5-5z" fill="#576255"/>
<path transform="translate(896,192)" d="m0 0 2 1-6 6h-2v2l-5 4-3 5-6 1 6-7 1-2 5-3z" fill="#A4A9A3"/>
<path transform="translate(709,492)" d="m0 0h1v15l-1 7-2 1v-14l1-8z" fill="#4A5648"/>
<path transform="translate(733,290)" d="m0 0 9 1 9 4v1l-10-1-8-3z" fill="#293029"/>
<path transform="translate(860,7)" d="m0 0h16l7 2-1 3-10-2-12-1z" fill="#0B0B0A"/>
<path transform="translate(677,654)" d="m0 0 2 1-5 6-13 6-2-1 9-5 5-5z" fill="#B9BEB9"/>
<path transform="translate(464,404)" d="m0 0 6 5 1 2 4 2 1 4 2 3-4-2-10-10-1-3z" fill="#222722"/>
<path transform="translate(461,396)" d="m0 0 4 5 6 7 2 4-3-1-5-6-4-1-1-5z" fill="#161916"/>
<path transform="translate(702,631)" d="m0 0 1 3-5 9-6 8-1-3 2-3v-3l4-2z" fill="#121412"/>
<path transform="translate(887,15)" d="m0 0 9 2 1 4-5 1-5-2-2-2z" fill="#444F43"/>
<path transform="translate(879,10)" d="m0 0 6 3 2 3-1 2-6-1-6-2z" fill="#5B665A"/>
<path transform="translate(1105,993)" d="m0 0 26 1v1l-10 1h-9l-2 4v-4l-5-2z" fill="#363E35"/>
<path transform="translate(451,341)" d="m0 0 6 2 7 6 2 2v2l-4-1-6-5v-2h-3z" fill="#3B4439"/>
<path transform="translate(766,305)" d="m0 0 4 1 8 4 2 4-4-2h-3l-8-4z" fill="#495448"/>
<path transform="translate(599,137)" d="m0 0h11l-2 2-7 1h-15l2-2z" fill="#1B1F1B"/>
<path transform="translate(232,843)" d="m0 0 2 1 7-1h1v5l-8 2 2-4h-3l-1 2-1-3z" fill="#313931"/>
<path transform="translate(3,797)" d="m0 0 8 2-4 2-5 5h-2v-8z" fill="#202520"/>
<path transform="translate(676,661)" d="m0 0m-3 1 5 1-5 4-10 5-4-1 5-3 6-2v-2h3z" fill="#0E0F0D"/>
<path transform="translate(889,204)" d="m0 0m-1 1m-1 1m-1 1 1 3-10 7-3 1 2-4 7-6z" fill="#0E0F0E"/>
<path transform="translate(931,64)" d="m0 0 2 4 1 3v7h-2l-1 2-2-5 1-7-1-2h2z" fill="#2E352E"/>
<path transform="translate(883,10)" d="m0 0 6 2 9 5-1 2-3-1-4-1-5-3-4-2z" fill="#1A1E1A"/>
<path transform="translate(609,674)" d="m0 0h15l3 3h-19z" fill="#525F50"/>
<path transform="translate(626,673)" d="m0 0h16l-4 2-7 1h-13v-1z" fill="#C6CAC5"/>
<path transform="translate(798,336)" d="m0 0h4l4 10-1 3-4-4z" fill="#353E35"/>
<path transform="translate(569,143)" d="m0 0 9 2v1l-17 2-4-2 3-2h7z" fill="#3A4339"/>
<path transform="translate(781,311)" d="m0 0 4 2 8 7-3 2-8-7v-2l-2-1z" fill="#343C33"/>
<path transform="translate(775,305)" d="m0 0 6 3 8 7-1 2-5-5-5-1-5-3 1-2z" fill="#2C332C"/>
<path transform="translate(857,59)" d="m0 0 6 1 6 5 1 4-5-2-5-5z" fill="#1E231E"/>
<path transform="translate(653,356)" d="m0 0 1 4-3 7-4-1v-6l5-1z" fill="#566254"/>
<path transform="translate(670,317)" d="m0 0 2 3-4 4h-2l-5 8-2-1 7-11z" fill="#0D0E0D"/>
<path transform="translate(600,249)" d="m0 0 14 1v2l-6 1-14-1v-1l6-1z" fill="#353D34"/>
<path transform="translate(841,39)" d="m0 0 4 4 6 3-1 4-5-4-1 3-3-2z" fill="#394039"/>
<path transform="translate(444,304)" d="m0 0 1 4-1 5v11l-4-1 1-4v-13z" fill="#3D463B"/>
<path transform="translate(552,144)" d="m0 0h8l3 2-7 1-4-1v2l-7 1v-2z" fill="#090909"/>
<path transform="translate(667,322)" d="m0 0 3 1v2h-2l-2 5h-3l1-4zm-5 8m-1 1m-3 1 3 1-5 5z" fill="#2A312A"/>
<path transform="translate(671,143)" d="m0 0 8 1 19 1v1l-24 1-3-2z" fill="#333B32"/>
<path transform="translate(591,141)" d="m0 0 9 1v1l6 1v1h-21v-3z" fill="#394137"/>
<path transform="translate(220,811)" d="m0 0h2l-2 9-1 4h-2v-10z" fill="#1D211D"/>
<path transform="translate(726,342)" d="m0 0 3 1-1 10-4 1z" fill="#2F372F"/>
<path transform="translate(881,143)" d="m0 0 6 1-4 3-10 1 3-4z" fill="#2B312A"/>
<path transform="translate(719,372)" d="m0 0h2l-1 12h1v5l-4-1v-6l1-5z" fill="#3D473B"/>
<path transform="translate(656,254)" d="m0 0h7l1 1 12 1v1h-21z" fill="#3C453A"/>
<path transform="translate(798,389)" d="m0 0 3 1-1 3-4 3h-5v-3z" fill="#0A0B0A"/>
<path transform="translate(846,227)" d="m0 0 2 1-7 6-6 1-2-2z" fill="#3D473C"/>
<path transform="translate(928,129)" d="m0 0h1l1 11-2 6h-1l-1-15h2z" fill="#3B443A"/>
<path transform="translate(702,611)" d="m0 0h1l-1 9-2 6h-1v-8l2-6z" fill="#6C766A"/>
<path transform="translate(613,495)" d="m0 0h1l1 11h-2l-2 4v-12z" fill="#333C33"/>
<path transform="translate(641,378)" d="m0 0h2l-1 8-2 7-3-1v-2h2l1-7z" fill="#3F493D"/>
<path transform="translate(656,346)" d="m0 0h2l-1 7-1 2h-4-3l3-5h4z" fill="#5A6658"/>
<path transform="translate(769,249)" d="m0 0h5l-1 2-13 2h-8v-1z" fill="#465145"/>
<path transform="translate(465,195)" d="m0 0v3l-2 6-3 3-2-1 2-6z" fill="#303830"/>
<path transform="translate(900,141)" d="m0 0 2 1 1 3-7 1-5-1 2-2z" fill="#4D594B"/>
<path transform="translate(841,27)" d="m0 0h1l2 9 5 8-1 2-5-5-2-5z" fill="#FEFEFE"/>
<path transform="translate(729,333)" d="m0 0 3 1-1 7h-3-1v-6z" fill="#2D342C"/>
<path transform="translate(434,288)" d="m0 0h2l1 4h-3l1 3h-2v10h-1v-15z" fill="#3E483D"/>
<path transform="translate(439,335)" d="m0 0 4 4 3 5h-3l-1 4-1-1-1-7z" fill="#3A4439"/>
<path transform="translate(684,303)" d="m0 0 1 2-3 5-5 1h-3l6-5 1 1z" fill="#0D0E0C"/>
<path transform="translate(664,139)" d="m0 0 5 1 1 4h-7l-3-1v-2z" fill="#363F35"/>
<path transform="translate(621,456)" d="m0 0 2 3 2 4-1 5-3-2z" fill="#3D463B"/>
<path transform="translate(716,418)" d="m0 0 2 4v10l-3-2v-11z" fill="#313931"/>
<path transform="translate(438,253)" d="m0 0 1 2-3 15h-1v-10l2-6z" fill="#353E35"/>
<path transform="translate(845,230)" d="m0 0 5 1-4 3-5 2-4-1z" fill="#131512"/>
<path transform="translate(446,228)" d="m0 0h3l-1 7h-3v2h-2l1-6z" fill="#313931"/>
<path transform="translate(859,223)" d="m0 0m-1 1m-1 1 1 3-6 3-4-1 5-4z" fill="#0D0E0D"/>
<path transform="translate(920,129)" d="m0 0 1 4-6 5-1-4z" fill="#4C594B"/>
<path transform="translate(845,14)" d="m0 0h2l-1 5h-2v2l-5-1-1 2 1-4 4-2z" fill="#232923"/>
<path transform="translate(708,294)" d="m0 0h6l3 3-11 1-1-3z" fill="#444F42"/>
<path transform="translate(891,200)" d="m0 0 1 3-6 5-3-1 5-6z" fill="#394238"/>
<path transform="translate(855,8)" d="m0 0h5l-2 4 1 2h-3v-2l-4-1v-2z" fill="#384137"/>
<path transform="translate(627,429)" d="m0 0 4 3-1 10-2-3-1-3v-2l-1-4z" fill="#404A3F"/>
<path transform="translate(705,290)" d="m0 0h7l-2 1v2l-7 2-4-1 3-2z" fill="#272D26"/>
<path transform="translate(464,202)" d="m0 0v3l-4 8h-2l-1 2 1-5z" fill="#ACB1AB"/>
<path transform="translate(545,149)" d="m0 0 6 1-4 3-4 2h-2l-1-3h3v-2z" fill="#404A3F"/>
<path transform="translate(712,148)" d="m0 0 10 1 2 3-12-1z" fill="#353D34"/>
<path transform="translate(544,146)" d="m0 0 3 1h-2v3l-8 2v-4z" fill="#242A24"/>
<path transform="translate(853,12)" d="m0 0h3l-1 3-6 4-2 1-1-3z" fill="#626D60"/>
<path transform="translate(722,377)" d="m0 0h1v7l-1 5-3-3 1-8z" fill="#343D34"/>
<path transform="translate(744,304)" d="m0 0 4 1h-2l-2 4-5 4 1-4z" fill="#838A82"/>
<path transform="translate(623,445)" d="m0 0 2 4 1 4-1 6-2-3-1-7z" fill="#3B4439"/>
<path transform="translate(493,424)" d="m0 0h9l-3 3v2h-6l1-3z" fill="#414C40"/>
<path transform="translate(805,382)" d="m0 0 1 3-4 6-4-2 1-3h5z" fill="#212621"/>
<path transform="translate(594,141)" d="m0 0h9l3 1v2h-7l-4-1-3-1z" fill="#4B5749"/>
</svg>
